<?xml version="1.0" encoding="UTF-8"?><svg id="a" xmlns="http://www.w3.org/2000/svg" viewBox="0 0 512 512"><defs><style>.b{fill:#272727;}.c{fill:#55d2cc;}.d{fill:#f3eccf;}</style></defs><circle class="c" cx="256.96" cy="256.32" r="239.32" transform="translate(-105.98 256.77) rotate(-45)"/><rect class="c" width="512" height="512" rx="91.67" ry="91.67"/><g><path class="d" d="M465.36,203.54s-37.11,4.08-54.1-25.17c-16.92-29.12,5.11-58.43,5.11-58.43,6.99-12.32,2.66-27.73-9.66-34.71l-63.21-35.7c-12.32-6.98-27.97-2.6-34.95,9.72,0,0-13.4,31.24-46.19,31.24-32.78,0-46.19-31.2-46.19-31.2-6.98-12.32-22.63-16.64-34.95-9.66l-63.21,35.83c-12.32,6.98-16.65,22.15-9.66,34.48,0,0,22.04,29.31,5.12,58.43-16.99,29.25-54.11,25.17-54.11,25.17-14.16,0-25.64,12.44-25.64,26.6v72.65c0,14.16,11.48,26.6,25.64,26.6,0,0,37.11-4.08,54.11,25.17,16.92,29.13-5.12,58.43-5.12,58.43-6.98,12.32-2.66,27.73,9.66,34.71l63.21,35.71c12.32,6.98,27.97,2.6,34.95-9.72,0,0,13.39-31.23,46.19-31.24,32.78,0,46.19,31.19,46.19,31.19,6.98,12.32,22.63,16.64,34.95,9.66l63.21-35.83c12.32-6.98,16.65-22.15,9.66-34.48,0,0-22.03-29.3-5.11-58.43,16.99-29.25,54.1-25.17,54.1-25.17,14.16,0,25.64-12.44,25.64-26.6v-72.65c0-14.16-11.48-26.6-25.64-26.6Zm-203.01,176.21c-62.56,0-113.28-50.72-113.28-113.28s50.72-113.28,113.28-113.28,113.28,50.72,113.28,113.28-50.72,113.28-113.28,113.28Z"/><path class="b" d="M454.87,186.75s-37.11,4.08-54.1-25.17c-16.92-29.12,5.11-58.43,5.11-58.43,6.99-12.32,2.66-27.73-9.66-34.71l-63.21-35.7c-12.32-6.98-27.97-2.6-34.95,9.72,0,0-13.4,31.24-46.19,31.24-32.78,0-46.19-31.2-46.19-31.2-6.98-12.32-22.63-16.64-34.95-9.66l-63.21,35.83c-12.32,6.98-16.65,22.15-9.66,34.48,0,0,22.04,29.31,5.12,58.43-16.99,29.25-54.11,25.17-54.11,25.17-14.16,0-25.64,12.44-25.64,26.6v72.65c0,14.16,11.48,26.6,25.64,26.6,0,0,37.11-4.08,54.11,25.17,16.92,29.13-5.12,58.43-5.12,58.43-6.98,12.32-2.66,27.73,9.66,34.71l63.21,35.71c12.32,6.98,27.97,2.6,34.95-9.72,0,0,13.39-31.23,46.19-31.24,32.78,0,46.19,31.19,46.19,31.19,6.98,12.32,22.63,16.64,34.95,9.66l63.21-35.83c12.32-6.98,16.65-22.15,9.66-34.48,0,0-22.03-29.3-5.11-58.43,16.99-29.25,54.1-25.17,54.1-25.17,14.16,0,25.64-12.44,25.64-26.6v-72.65c0-14.16-11.48-26.6-25.64-26.6Zm-203.01,176.21c-62.56,0-113.28-50.72-113.28-113.28s50.72-113.28,113.28-113.28,113.28,50.72,113.28,113.28-50.72,113.28-113.28,113.28Z"/></g></svg>