<?xml version="1.0" encoding="UTF-8"?><svg id="a" xmlns="http://www.w3.org/2000/svg" viewBox="0 0 512 512"><defs><style>.b{fill:#272727;}.c{fill:#55d2cc;}.d{fill:#f3eccf;}</style></defs><circle class="c" cx="256.96" cy="256.32" r="239.32" transform="translate(-105.98 256.77) rotate(-45)"/><rect class="c" width="512" height="512" rx="91.67" ry="91.67"/><g><path class="d" d="M451.3,207.22s-34.6,3.8-50.45-23.47c-15.78-27.16,4.77-54.49,4.77-54.49,6.51-11.49,2.48-25.86-9.01-32.37l-58.94-33.29c-11.49-6.51-26.08-2.42-32.59,9.07,0,0-12.49,29.13-43.07,29.13-30.57,0-43.07-29.09-43.07-29.09-6.51-11.49-21.11-15.52-32.59-9l-58.94,33.41c-11.49,6.51-15.52,20.66-9.01,32.15,0,0,20.55,27.33,4.77,54.49-15.85,27.27-50.46,23.47-50.46,23.47-13.21,0-23.91,11.6-23.91,24.81v67.75c0,13.21,10.71,24.81,23.91,24.81,0,0,34.61-3.8,50.46,23.47,15.78,27.16-4.77,54.48-4.77,54.48-6.51,11.49-2.48,25.86,9.01,32.37l58.94,33.3c11.49,6.51,26.08,2.42,32.59-9.07,0,0,12.49-29.13,43.07-29.13,30.57,0,43.07,29.09,43.07,29.09,6.51,11.49,21.1,15.52,32.59,9l58.94-33.41c11.49-6.51,15.52-20.66,9.01-32.15,0,0-20.54-27.33-4.77-54.49,15.85-27.27,50.45-23.47,50.45-23.47,13.21,0,23.91-11.6,23.91-24.81v-67.75c0-13.21-10.71-24.81-23.91-24.81Zm-189.3,164.31c-58.34,0-105.63-47.29-105.63-105.63s47.29-105.63,105.63-105.63,105.63,47.29,105.63,105.63-47.29,105.63-105.63,105.63Z"/><path class="b" d="M441.52,191.57s-34.6,3.8-50.45-23.47c-15.78-27.16,4.77-54.49,4.77-54.49,6.51-11.49,2.48-25.86-9.01-32.37l-58.94-33.29c-11.49-6.51-26.08-2.42-32.59,9.07,0,0-12.49,29.13-43.07,29.13-30.57,0-43.07-29.09-43.07-29.09-6.51-11.49-21.11-15.52-32.59-9l-58.94,33.41c-11.49,6.51-15.52,20.66-9.01,32.15,0,0,20.55,27.33,4.77,54.49-15.85,27.27-50.46,23.47-50.46,23.47-13.21,0-23.91,11.6-23.91,24.81v67.75c0,13.21,10.71,24.81,23.91,24.81,0,0,34.61-3.8,50.46,23.47,15.78,27.16-4.77,54.48-4.77,54.48-6.51,11.49-2.48,25.86,9.01,32.37l58.94,33.3c11.49,6.51,26.08,2.42,32.59-9.07,0,0,12.49-29.13,43.07-29.13,30.57,0,43.07,29.09,43.07,29.09,6.51,11.49,21.1,15.52,32.59,9l58.94-33.41c11.49-6.51,15.52-20.66,9.01-32.15,0,0-20.54-27.33-4.77-54.49,15.85-27.27,50.45-23.47,50.45-23.47,13.21,0,23.91-11.6,23.91-24.81v-67.75c0-13.21-10.71-24.81-23.91-24.81Zm-189.3,164.31c-58.34,0-105.63-47.29-105.63-105.63s47.29-105.63,105.63-105.63,105.63,47.29,105.63,105.63-47.29,105.63-105.63,105.63Z"/></g></svg>